<?xml version="1.0" encoding="utf-8"?>
<!-- Generator: Adobe Illustrator 25.3.1, SVG Export Plug-In . SVG Version: 6.00 Build 0)  -->
<svg version="1.1" id="レイヤー_1" xmlns="http://www.w3.org/2000/svg" xmlns:xlink="http://www.w3.org/1999/xlink" x="0px"
	 y="0px" width="550px" height="53px" viewBox="0 0 550 53" style="enable-background:new 0 0 550 53;" xml:space="preserve">
<g>
	<path d="M21.6,1.1v1h-5.2l12.7,37h0.1l7.4-20.9L31.2,2.1h-3.8v-1h21.1v1h-6.6l12.8,37.1h0.1L67.9,2.1h-6.1v-1h13v1h-5.7L51,53h-2
		L37.4,19.8h-0.1L25.4,53h-2L5.8,2.1H0v-1H21.6z"/>
	<path d="M95.5,1.1v1H89v23h20.4v-23h-6.5v-1h23.2v1h-6.5v48h6.5v1h-23.2v-1h6.5v-24H89v24h6.5v1H72.2v-1h6.5v-48h-6.5v-1H95.5z"/>
	<path d="M147.5,1.1v1h-5.6l14.4,24.5l13-24.5h-6.1v-1h13.5v1h-6.1l-13.6,25.8v22.3h6.6v1h-23.3v-1h6.5V30.5L130.2,2.1h-5.5v-1
		H147.5z"/>
	<path d="M216.8,1.1v1h-5.6l14.4,24.5l13-24.5h-6.1v-1H246v1h-6.1l-13.6,25.8v22.3h6.6v1h-23.3v-1h6.5V30.5L199.6,2.1h-5.5v-1H216.8
		z"/>
	<path d="M246,15.4c1.6-3.2,3.7-6,6.2-8.3c2.5-2.3,5.4-4.1,8.5-5.3C264,0.6,267,0,270.1,0c3.2,0,6.5,0.6,9.6,1.8
		c3.2,1.2,6,2.9,8.5,5.2c2.5,2.2,4.5,5,6,8.2s2.3,6.8,2.3,10.8c0,3.5-0.7,6.8-2.2,10c-1.4,3.2-3.4,5.9-5.8,8.3
		c-2.4,2.4-5.2,4.3-8.4,5.7c-3.2,1.4-6.5,2.1-10.1,2.1c-3.5,0-6.8-0.7-10-2c-3.2-1.3-6-3.2-8.4-5.5c-2.4-2.3-4.4-5-5.8-8.2
		c-1.5-3.1-2.2-6.5-2.2-10.2C243.6,22.3,244.4,18.7,246,15.4z M255.9,38.4c0.6,3.2,1.4,5.8,2.6,7.7c1.2,1.9,2.8,3.2,4.7,4
		c1.9,0.7,4.2,1.1,6.8,1.1c3.5,0,6.2-0.6,8.2-1.9c2-1.3,3.5-3.1,4.4-5.3c1-2.3,1.6-5,1.9-8.1c0.3-3.1,0.4-6.5,0.4-10.1
		c0-3.3-0.1-6.4-0.3-9.4c-0.2-3-0.8-5.6-1.8-7.9c-1-2.3-2.5-4.1-4.5-5.4c-2-1.3-4.8-2-8.3-2c-3.3,0-5.9,0.6-7.9,1.9
		c-2,1.2-3.5,3-4.5,5.2c-1,2.2-1.7,4.9-2,8c-0.3,3.1-0.5,6.5-0.5,10.2C255.1,31.1,255.4,35.2,255.9,38.4z"/>
	<path d="M322.9,1.1v1h-6.5v31.5c0,2.2,0.1,4.3,0.3,6.4c0.2,2.1,0.7,3.9,1.5,5.6c0.8,1.6,1.9,3,3.5,4c1.5,1,3.6,1.5,6.2,1.5
		c2.5,0,4.7-0.3,6.4-0.9c1.7-0.6,3.1-1.4,4.3-2.3c1.1-1,2-2,2.6-3.2c0.6-1.2,1.1-2.4,1.3-3.6c0.3-1.2,0.4-2.3,0.5-3.4
		c0-1.1,0.1-1.9,0.1-2.6v-33h-6.4v-1h14.1v1h-6.6V35c0,0.7,0,1.7-0.1,2.8c0,1.1-0.2,2.4-0.6,3.6c-0.3,1.3-0.8,2.5-1.5,3.8
		c-0.7,1.3-1.6,2.4-2.9,3.4c-1.3,1-2.9,1.8-4.8,2.5c-1.9,0.6-4.3,0.9-7.1,0.9c-4.6,0-8.2-0.5-11-1.5c-2.8-1-4.9-2.3-6.4-3.9
		c-1.5-1.6-2.5-3.5-2.9-5.5c-0.5-2.1-0.7-4.1-0.7-6.2V2.1h-6.6v-1H322.9z"/>
	<path d="M374.4,2.1v-1H385c2,0,3.9,0,5.9-0.1c1.9-0.1,3.9-0.1,5.9-0.1c1.8,0,3.8,0.2,5.8,0.6c2,0.4,3.9,1,5.6,1.9
		c1.7,0.9,3.1,2.1,4.2,3.7s1.7,3.5,1.7,5.8c0,1.9-0.4,3.5-1.3,4.8c-0.8,1.3-1.9,2.4-3.3,3.3c-1.3,0.8-2.8,1.5-4.5,1.9
		c-1.6,0.4-3.3,0.7-4.9,0.9v0.4c2.3,0.4,4.4,0.8,6.2,1.3c1.8,0.4,3.4,1.1,4.7,1.9c1.3,0.8,2.4,2,3.1,3.5c0.8,1.5,1.3,3.5,1.4,6
		c0.2,2.9,0.4,5.3,0.6,7.1c0.1,1.8,0.3,3.2,0.6,4.1c0.3,1,0.6,1.6,1.1,2c0.4,0.3,1.1,0.5,1.9,0.5c0.9,0,1.7-0.3,2.3-0.8
		c0.6-0.5,1.2-1,1.6-1.5l0.7,0.6c-0.5,0.5-0.9,0.9-1.4,1.3c-0.4,0.4-1,0.7-1.6,1c-0.6,0.3-1.3,0.5-2.2,0.7c-0.8,0.2-1.9,0.2-3.2,0.2
		c-2.6,0-4.6-0.4-6.1-1.2c-1.5-0.8-2.5-1.8-3.2-3.1c-0.7-1.2-1.1-2.5-1.3-4c-0.2-1.4-0.3-2.8-0.3-4c-0.1-1.9-0.2-3.8-0.4-5.6
		c-0.2-1.8-0.6-3.4-1.2-4.8c-0.6-1.4-1.5-2.5-2.8-3.4c-1.2-0.8-2.9-1.3-5.2-1.3h-4.7v25.3h6.5v1h-23.2v-1h6.5v-48H374.4z M394,23.8
		c2.1,0,3.8-0.3,5-0.8c1.2-0.6,2.1-1.3,2.8-2.3c0.6-1,1-2,1.2-3.3c0.2-1.2,0.2-2.5,0.2-3.7c0-2.1-0.1-3.8-0.4-5.3
		c-0.3-1.5-0.8-2.7-1.4-3.7c-0.7-1-1.6-1.7-2.7-2.1c-1.2-0.5-2.6-0.7-4.4-0.7c-0.5,0-1,0-1.6,0.1c-0.5,0-1,0.1-1.6,0.1v21.7H394z"/>
	<path d="M444.9,1.1v1h-6.5v31.5c0,2.2,0.1,4.3,0.3,6.4c0.2,2.1,0.7,3.9,1.5,5.6c0.8,1.6,1.9,3,3.5,4c1.5,1,3.6,1.5,6.2,1.5
		c2.5,0,4.7-0.3,6.4-0.9c1.7-0.6,3.1-1.4,4.3-2.3c1.1-1,2-2,2.6-3.2c0.6-1.2,1.1-2.4,1.3-3.6c0.3-1.2,0.4-2.3,0.5-3.4
		c0-1.1,0.1-1.9,0.1-2.6v-33h-6.4v-1h14.1v1h-6.6V35c0,0.7,0,1.7-0.1,2.8c0,1.1-0.2,2.4-0.6,3.6c-0.3,1.3-0.8,2.5-1.5,3.8
		c-0.7,1.3-1.6,2.4-2.9,3.4c-1.3,1-2.9,1.8-4.8,2.5c-1.9,0.6-4.3,0.9-7.1,0.9c-4.6,0-8.2-0.5-11-1.5c-2.8-1-4.9-2.3-6.4-3.9
		c-1.5-1.6-2.5-3.5-2.9-5.5c-0.5-2.1-0.7-4.1-0.7-6.2V2.1h-6.6v-1H444.9z"/>
	<path d="M489.1,1.1l23.5,33.4h0.1V2.1h-6.5v-1h14.1v1h-6.5v49H512l-31.8-45h-0.1v44h6.5v1h-14.1v-1h6.5v-48h-6.5v-1H489.1z"/>
	<path d="M528.1,43.3c1-1,2.2-1.5,3.5-1.5s2.5,0.5,3.5,1.5c1,1,1.5,2.2,1.5,3.5c0,1.4-0.5,2.5-1.5,3.5c-1,1-2.2,1.4-3.5,1.4
		s-2.5-0.5-3.5-1.4c-1-1-1.5-2.1-1.5-3.5C526.6,45.5,527.1,44.3,528.1,43.3z M532.3,21.1c0.6,0.8,1.2,1.6,1.9,2.3
		c0.7,0.7,1.6,1,2.6,1c1.8,0,3.1-1.1,3.7-3.2c0.6-2.2,0.9-5.3,0.9-9.4c0-2.1-0.1-3.8-0.2-5.2c-0.1-1.4-0.4-2.5-0.7-3.3
		c-0.3-0.8-0.8-1.4-1.3-1.8C538.6,1.2,537.9,1,537,1c-1.3,0-2.2,0.3-2.8,0.8c-0.6,0.6-0.9,1.2-0.9,1.8c0,0.4,0.1,0.8,0.2,1.1
		c0.2,0.3,0.3,0.6,0.5,0.8c0.2,0.3,0.3,0.6,0.5,0.9c0.2,0.3,0.2,0.7,0.2,1.3c0,1.2-0.3,2-0.9,2.5c-0.6,0.4-1.6,0.7-3,0.7
		c-0.9,0-1.8-0.2-2.6-0.7c-0.8-0.5-1.2-1.3-1.2-2.6c0-1.3,0.3-2.4,0.9-3.4c0.6-1,1.4-1.7,2.4-2.4c1-0.6,2.1-1.1,3.3-1.4
		c1.2-0.3,2.4-0.5,3.6-0.5c2.1,0,3.9,0.3,5.5,1c1.6,0.7,2.9,1.6,4,2.8c1.1,1.2,1.9,2.5,2.4,4.1c0.5,1.5,0.8,3.2,0.8,4.9
		c0,2.3-0.4,4.3-1.3,6c-0.9,1.6-2,3-3.2,4c-1.3,1-2.6,1.7-3.9,2.2c-1.3,0.5-2.5,0.7-3.4,0.7c-1.6,0-2.9-0.3-3.8-0.8
		c-0.9-0.5-1.5-1.1-1.9-1.6h-0.1v14.4h-1.2V21.1H532.3z"/>
</g>
</svg>
