<?xml version="1.0" encoding="utf-8"?>
<!-- Generator: Adobe Illustrator 25.3.1, SVG Export Plug-In . SVG Version: 6.00 Build 0)  -->
<svg version="1.1" id="レイヤー_1" xmlns="http://www.w3.org/2000/svg" xmlns:xlink="http://www.w3.org/1999/xlink" x="0px"
	 y="0px" width="200px" height="110px" viewBox="0 0 200 110" style="enable-background:new 0 0 200 110;" xml:space="preserve">
<style type="text/css">
	.st0{fill:#E6321E;}
</style>
<path class="st0" d="M40.5,49.9l-3.3,5.8l33.2,1.9l6-10.4L40.5,49.9z M59.5,16.6l-3.3,5.8l47.1,3.1l-3-11.5L59.5,16.6z M65.8,5.8
	l32.9,2.1L96.6,0L69.1,0L65.8,5.8z M30.9,66.5l-3.3,5.8l34.3,0l4.8-8.3L30.9,66.5z M134.7,41.7c2.4,0,5.8,2.5,4,7.4
	c-2,5.2-8.6,7.1-12.2,7.1h-7.9l8.3-14.4L134.7,41.7z M142.6,14.1l6.7,0c2.9,0,5,3.4,3.4,7.3c-1.7,4.3-6.5,6.4-11.1,6.4l-6.9,0
	L142.6,14.1z M103.5,25.5l21.9,1.4l-0.8,1.5L50,33.2L46.7,39l69.3,4.4l-0.8,1.5l-38.6,2.3l2.9,11l27.1,1.7l-0.8,1.5l-25,1.8l2.3,9.3
	l47.7,0c11.5,0,32.1-7.6,34.5-23.6c1.4-9-6.5-12.5-9.6-12.9c14.8-4.2,19.9-14.2,20.9-18.2C180.2,4.5,171,0,158.6,0l-40.4,0l-5.1,8.9
	l21.8,1.5l-0.8,1.5l-23.5,1.5L103.5,25.5z M185.2,102c0.2,1.2,1.9,3.9,5.2,3.9c2,0,3.5-0.8,4.3-2.4h4.7c-1.1,3.4-4.7,6.5-9,6.5
	c-5.6,0-9.9-4.5-9.9-9.9c0-5.3,4.1-10.2,9.8-10.2c5.9,0,9.7,5.2,9.7,9.9c0,0.9-0.1,1.7-0.3,2.3H185.2z M185.1,98.4h10.3
	c-0.5-3-2.8-4.4-5.1-4.4C188.7,94,185.9,94.9,185.1,98.4 M174.7,103.3c-1.2,1.9-2.7,2.6-4.1,2.6c-3.4,0-5.6-2.7-5.6-5.9
	c0-3.9,2.7-5.9,5.4-5.9c2.8,0,3.8,1.8,4.4,2.7h5.1c-1.9-5.8-7.1-6.9-9.4-6.9c-5.2,0-9.9,4.2-9.9,9.9c0,6.2,5.2,10.1,9.9,10.1
	c4.4,0,7.9-2.5,9.4-6.7H174.7z M142.2,109.4h4.5v-8.9c0-1.6,0-3.6,0.8-4.7c0.8-1.2,2.3-1.7,3.1-1.7c3.8,0,3.8,4.5,3.8,6v9.3h4.5
	V99.2c0-1.5,0-4.6-1.7-6.7c-1.5-1.9-4-2.6-5.6-2.6c-2.8,0-4.4,1.6-5.1,2.3v-1.6h-4.1V109.4z M139.8,109.4h-4.1v-2.3
	c-1.4,1.7-4.2,2.9-6.5,2.9c-4.8,0-9.1-3.9-9.1-10.1c0-5.8,4.2-9.9,9.4-9.9c3.8,0,6.1,2.7,6.2,3h0.1v-2.4h4.1V109.4z M135.5,100
	c0-3.9-2.8-5.9-5.5-5.9c-3.7,0-5.6,3.2-5.6,6c0,3.2,2.4,5.8,5.6,5.8C133.2,105.9,135.5,103.4,135.5,100 M118.7,84.3h-4.5v25h4.5
	V84.3z M111.8,109.4h-4.1v-2.3c-1.4,1.7-4.2,2.9-6.5,2.9c-4.8,0-9.1-3.9-9.1-10.1c0-5.8,4.2-9.9,9.4-9.9c3.8,0,6.1,2.7,6.2,3h0.1
	v-2.4h4.1V109.4z M107.6,100c0-3.9-2.8-5.9-5.5-5.9c-3.7,0-5.6,3.2-5.6,6c0,3.2,2.4,5.8,5.6,5.8C105.2,105.9,107.6,103.4,107.6,100
	 M71.2,84.3h4.5v8c1.5-1.6,3.7-2.3,5.8-2.3c5.7,0,9.4,5,9.4,9.9c0,3.8-2.5,10.1-9.3,10.1c-3.6,0-5.2-1.6-6.3-2.9v2.3h-4.1V84.3z
	 M75.4,99.7c0,4.2,3,6.1,5.6,6.1c2.9,0,5.4-2.3,5.4-5.9c0-3.7-2.6-5.9-5.5-5.9C77.5,94.1,75.4,97,75.4,99.7 M43,109.4h2.8l3.5-12.2
	h0.1l3.5,12.2h2.8l6.8-18.8h-4.8l-3.4,11.5h-0.1l-3-11.5h-3.6l-3.1,11.5h-0.1l-3.4-11.5h-4.8L43,109.4z M22.5,102
	c0.2,1.2,2,3.9,5.2,3.9c2,0,3.5-0.8,4.3-2.4h4.7c-1.1,3.4-4.7,6.5-9,6.5c-5.6,0-9.9-4.5-9.9-9.9c0-5.3,4.1-10.2,9.8-10.2
	c5.9,0,9.7,5.2,9.7,9.9c0,0.9-0.1,1.7-0.3,2.3H22.5z M22.3,98.4h10.3c-0.5-3-2.8-4.4-5-4.4C26,94,23.2,94.9,22.3,98.4 M0,109.4V90.6
	h4.1v1.6C4.9,91.5,6.4,90,9.3,90c1.6,0,4.1,0.7,5.6,2.6c1.7,2.1,1.7,5.2,1.7,6.7v10.2h-4.5v-9.3c0-1.6,0-6-3.8-6
	c-0.8,0-2.3,0.4-3.1,1.7c-0.8,1.2-0.8,3.1-0.8,4.7v8.9H0z"/>
</svg>
